<?xml version="1.0" encoding="UTF-8" standalone="no"?><!DOCTYPE svg PUBLIC "-//W3C//DTD SVG 1.1//EN" "http://www.w3.org/Graphics/SVG/1.1/DTD/svg11.dtd"><svg width="100%" height="100%" viewBox="0 0 96 96" version="1.1" xmlns="http://www.w3.org/2000/svg" xmlns:xlink="http://www.w3.org/1999/xlink" xml:space="preserve" xmlns:serif="http://www.serif.com/" style="fill-rule:evenodd;clip-rule:evenodd;stroke-linejoin:round;stroke-miterlimit:2;"><path d="M12,24l24,0l0,12l12,0l0,6l-18,0l0,-12l-6,0l0,30l-12,0l0,-6l6,0l0,-24l-6,0l0,-6Z" style="fill:#1A969B;"/><path d="M0,12l48,0l0,12l6,0l0,-12l30,0l0,6l-24,0l0,18l-6,0l0,-6l-12,0l0,-12l-36,0l0,18l6,0l0,6l-6,0l0,48l30,0l0,-6l-12,0l0,-6l18,0l0,12l54,0l0,6l-96,0l0,-84Z" style="fill:#1A969B;"/><path d="M0,0l96,0l-0,84.027l-5.846,0.015l-0.154,-12.042l-6,0l0,12l-36,0l0,-6l18,0l0,-6l-48,0l0,12l-6,0l0,-18l18,0l0,-18l18,0l0,12l-6,0l0,-6l-6,0l0,12l18,0l0,-24l12,0l0,-6l6,0l0,12l-12,0l0,18l6,0l0,-12l12,0l0,-24l-12,0l0,-6l18,0l0,36l-12,0l0,18l6,0l0,-12l12,0l0,-60l-90,0l0,-6Z" style="fill:#1A969B;"/></svg>